<svg width="24.000000" height="24.000000" viewBox="0 0 24 24" fill="none" xmlns="http://www.w3.org/2000/svg" xmlns:xlink="http://www.w3.org/1999/xlink">
	<desc>
			Created with Pixso.
	</desc>
	<defs>
		<clipPath id="clip164_21">
			<rect id="links" width="24.000000" height="24.000000" fill="white" fill-opacity="0"/>
		</clipPath>
	</defs>
	<rect id="links" width="24.000000" height="24.000000" fill="#FFFFFF" fill-opacity="0"/>
	<g clip-path="url(#clip164_21)">
		<path id="Vector" d="M10 13C10.42 13.57 10.97 14.04 11.6 14.39C12.23 14.73 12.93 14.94 13.64 14.99C14.36 15.04 15.07 14.94 15.75 14.68C16.42 14.43 17.03 14.04 17.54 13.54L20.54 10.54C21.45 9.59 21.95 8.33 21.94 7.02C21.93 5.71 21.4 4.45 20.47 3.53C19.55 2.6 18.29 2.07 16.98 2.06C15.67 2.05 14.41 2.55 13.47 3.46L11.75 5.18" stroke="#25282B" stroke-opacity="1.000000" stroke-width="2.000000" stroke-linejoin="round" stroke-linecap="round"/>
		<path id="Vector" d="M14 11C13.57 10.42 13.02 9.95 12.39 9.6C11.76 9.26 11.06 9.05 10.35 9C9.63 8.95 8.92 9.06 8.24 9.31C7.57 9.56 6.96 9.95 6.45 10.46L3.45 13.46C2.54 14.4 2.04 15.66 2.05 16.97C2.06 18.28 2.59 19.54 3.52 20.46C4.44 21.39 5.7 21.92 7.01 21.93C8.32 21.94 9.58 21.44 10.53 20.53L12.24 18.82" stroke="#25282B" stroke-opacity="1.000000" stroke-width="2.000000" stroke-linejoin="round" stroke-linecap="round"/>
	</g>
</svg>
